<svg xmlns="http://www.w3.org/2000/svg" xmlns:xlink="http://www.w3.org/1999/xlink" width="200" zoomAndPan="magnify" viewBox="0 0 150 149.999998" height="200" preserveAspectRatio="xMidYMid meet" version="1.0"><defs><clipPath id="bf23c18182"><path d="M 36.429688 18.996094 L 113.679688 18.996094 L 113.679688 130.746094 L 36.429688 130.746094 Z M 36.429688 18.996094 " clip-rule="nonzero"/></clipPath></defs><g clip-path="url(#bf23c18182)"><path fill="#000000" d="M 108.804688 121.324219 L 106.808594 121.324219 L 102.121094 108.828125 C 107.796875 103.96875 111.050781 96.941406 111.050781 89.5 L 111.050781 67.785156 C 111.050781 53.722656 99.566406 42.28125 85.453125 42.28125 L 70.074219 42.28125 L 70.074219 41.46875 C 70.074219 38.898438 69.015625 36.386719 67.167969 34.589844 L 65.902344 33.355469 L 65.902344 23.953125 C 65.902344 21.210938 63.664062 18.984375 60.917969 18.984375 C 58.167969 18.984375 55.929688 21.210938 55.929688 23.953125 L 55.929688 33.355469 L 54.664062 34.589844 C 52.816406 36.386719 51.757812 38.898438 51.757812 41.46875 L 51.757812 72.691406 C 49.90625 73.140625 48.519531 74.800781 48.519531 76.78125 L 48.519531 79.761719 C 48.519531 80.449219 49.078125 81.003906 49.769531 81.003906 L 52.878906 81.003906 L 52.878906 81.996094 C 52.878906 84.527344 54.945312 86.589844 57.488281 86.589844 L 64.339844 86.589844 C 66.882812 86.589844 68.953125 84.527344 68.953125 81.996094 L 68.953125 81.003906 L 72.058594 81.003906 C 72.75 81.003906 73.308594 80.449219 73.308594 79.761719 L 73.308594 76.78125 C 73.308594 74.800781 71.925781 73.140625 70.070312 72.691406 L 70.070312 69.464844 L 89.320312 69.464844 C 90.011719 69.464844 90.570312 68.910156 90.570312 68.222656 L 90.570312 68.042969 C 90.570312 66.160156 92.109375 64.625 94 64.625 C 95.894531 64.625 97.433594 66.160156 97.433594 68.042969 L 97.433594 89.242188 C 97.433594 91.128906 95.894531 92.660156 94 92.660156 C 92.109375 92.660156 90.570312 91.128906 90.570312 89.242188 L 90.570312 89.066406 C 90.570312 88.375 90.011719 87.820312 89.320312 87.820312 L 79.960938 87.820312 C 79.269531 87.820312 78.710938 88.375 78.710938 89.066406 L 78.710938 91.542969 L 37.816406 91.542969 C 37.125 91.542969 36.566406 92.097656 36.566406 92.789062 L 36.566406 98.125 C 36.566406 98.8125 37.125 99.367188 37.816406 99.367188 L 47.898438 99.367188 L 47.898438 100.234375 C 47.898438 102.902344 50.078125 105.074219 52.761719 105.074219 L 69.074219 105.074219 C 71.753906 105.074219 73.9375 102.902344 73.9375 100.234375 L 73.9375 99.367188 L 78.714844 99.367188 L 78.714844 113.757812 C 78.714844 114.445312 79.273438 115 79.964844 115 L 85.453125 115 C 86.683594 115 87.910156 114.890625 89.125 114.71875 L 89.125 121.320312 L 41.300781 121.320312 C 38.691406 121.320312 36.566406 123.4375 36.566406 126.039062 C 36.566406 128.644531 38.691406 130.761719 41.300781 130.761719 L 108.804688 130.761719 C 111.417969 130.761719 113.542969 128.644531 113.542969 126.039062 C 113.542969 123.4375 111.417969 121.320312 108.804688 121.320312 Z M 58.429688 23.949219 C 58.429688 22.582031 59.546875 21.472656 60.917969 21.472656 C 62.285156 21.472656 63.402344 22.585938 63.402344 23.949219 L 63.402344 32.632812 L 58.429688 32.632812 Z M 66.457031 81.992188 C 66.457031 83.15625 65.507812 84.097656 64.34375 84.097656 L 57.492188 84.097656 C 56.324219 84.097656 55.378906 83.152344 55.378906 81.992188 L 55.378906 81.003906 L 66.457031 81.003906 Z M 70.8125 76.78125 L 70.8125 78.515625 L 51.019531 78.515625 L 51.019531 76.78125 C 51.019531 75.824219 51.800781 75.046875 52.757812 75.046875 L 69.074219 75.046875 C 70.03125 75.046875 70.8125 75.824219 70.8125 76.78125 Z M 70.074219 44.769531 L 78.714844 44.769531 L 78.714844 50.054688 C 76.015625 50.628906 73.984375 53.015625 73.984375 55.871094 C 73.984375 58.726562 76.015625 61.117188 78.714844 61.691406 L 78.714844 66.976562 L 70.074219 66.976562 Z M 71.4375 100.234375 C 71.4375 101.53125 70.375 102.585938 69.074219 102.585938 L 52.757812 102.585938 C 51.457031 102.585938 50.394531 101.53125 50.394531 100.234375 L 50.394531 99.367188 L 71.4375 99.367188 Z M 85.453125 112.511719 L 81.210938 112.511719 L 81.210938 90.308594 L 88.171875 90.308594 C 88.675781 93.058594 91.101562 95.148438 94.003906 95.148438 C 97.273438 95.148438 99.933594 92.496094 99.933594 89.242188 L 99.933594 68.042969 C 99.933594 64.785156 97.273438 62.136719 94.003906 62.136719 C 91.101562 62.136719 88.675781 64.226562 88.171875 66.976562 L 81.210938 66.976562 L 81.210938 61.691406 C 83.90625 61.117188 85.9375 58.726562 85.9375 55.871094 C 85.9375 53.015625 83.90625 50.628906 81.210938 50.054688 L 81.210938 44.769531 L 85.453125 44.769531 C 98.191406 44.769531 108.550781 55.09375 108.550781 67.785156 L 108.550781 89.5 C 108.550781 95.898438 105.859375 101.941406 101.171875 106.296875 L 100.085938 103.398438 C 99.265625 101.203125 97.132812 99.730469 94.78125 99.730469 C 91.660156 99.730469 89.121094 102.261719 89.121094 105.371094 L 89.121094 112.210938 C 87.914062 112.402344 86.683594 112.511719 85.453125 112.511719 Z M 108.804688 128.269531 L 41.300781 128.269531 C 40.066406 128.269531 39.0625 127.269531 39.0625 126.039062 C 39.0625 124.8125 40.066406 123.8125 41.300781 123.8125 L 108.804688 123.8125 C 110.039062 123.8125 111.042969 124.8125 111.042969 126.039062 C 111.042969 127.269531 110.039062 128.269531 108.804688 128.269531 Z M 108.804688 128.269531 " fill-opacity="1" fill-rule="nonzero"/></g></svg>