<svg xmlns="http://www.w3.org/2000/svg" xmlns:xlink="http://www.w3.org/1999/xlink" width="200" zoomAndPan="magnify" viewBox="0 0 150 149.999998" height="200" preserveAspectRatio="xMidYMid meet" version="1.0"><defs><clipPath id="1fb4e26fa7"><path d="M 36.429688 18.996094 L 113.679688 18.996094 L 113.679688 130.746094 L 36.429688 130.746094 Z M 36.429688 18.996094 " clip-rule="nonzero"/></clipPath></defs><g clip-path="url(#1fb4e26fa7)"><path fill="#14606d" d="M 108.695312 121.546875 L 106.699219 121.546875 L 102.023438 109.027344 C 107.6875 104.152344 110.9375 97.113281 110.9375 89.65625 L 110.9375 67.894531 C 110.9375 53.800781 99.472656 42.335938 85.378906 42.335938 L 70.023438 42.335938 L 70.023438 41.519531 C 70.023438 38.941406 68.964844 36.425781 67.121094 34.625 L 65.855469 33.386719 L 65.855469 23.960938 C 65.855469 21.21875 63.625 18.984375 60.878906 18.984375 C 58.132812 18.984375 55.902344 21.21875 55.902344 23.960938 L 55.902344 33.386719 L 54.636719 34.625 C 52.792969 36.425781 51.734375 38.941406 51.734375 41.519531 L 51.734375 72.808594 C 49.882812 73.261719 48.503906 74.921875 48.503906 76.910156 L 48.503906 79.894531 C 48.503906 80.582031 49.058594 81.140625 49.75 81.140625 L 52.855469 81.140625 L 52.855469 82.132812 C 52.855469 84.671875 54.917969 86.738281 57.457031 86.738281 L 64.296875 86.738281 C 66.835938 86.738281 68.902344 84.671875 68.902344 82.132812 L 68.902344 81.140625 L 72.007812 81.140625 C 72.695312 81.140625 73.253906 80.582031 73.253906 79.894531 L 73.253906 76.910156 C 73.253906 74.921875 71.871094 73.261719 70.019531 72.808594 L 70.019531 69.578125 L 89.238281 69.578125 C 89.929688 69.578125 90.488281 69.019531 90.488281 68.328125 L 90.488281 68.152344 C 90.488281 66.261719 92.023438 64.726562 93.914062 64.726562 C 95.804688 64.726562 97.339844 66.261719 97.339844 68.152344 L 97.339844 89.398438 C 97.339844 91.285156 95.804688 92.824219 93.914062 92.824219 C 92.023438 92.824219 90.488281 91.285156 90.488281 89.398438 L 90.488281 89.21875 C 90.488281 88.53125 89.929688 87.972656 89.238281 87.972656 L 79.894531 87.972656 C 79.203125 87.972656 78.644531 88.53125 78.644531 89.21875 L 78.644531 91.703125 L 37.8125 91.703125 C 37.121094 91.703125 36.566406 92.261719 36.566406 92.949219 L 36.566406 98.296875 C 36.566406 98.988281 37.121094 99.542969 37.8125 99.542969 L 47.882812 99.542969 L 47.882812 100.410156 C 47.882812 103.089844 50.058594 105.265625 52.734375 105.265625 L 69.027344 105.265625 C 71.703125 105.265625 73.878906 103.089844 73.878906 100.410156 L 73.878906 99.542969 L 78.648438 99.542969 L 78.648438 113.964844 C 78.648438 114.65625 79.207031 115.214844 79.898438 115.214844 L 85.378906 115.214844 C 86.605469 115.214844 87.832031 115.101562 89.042969 114.929688 L 89.042969 121.546875 L 41.292969 121.546875 C 38.6875 121.546875 36.566406 123.667969 36.566406 126.277344 C 36.566406 128.882812 38.6875 131.007812 41.292969 131.007812 L 108.695312 131.007812 C 111.304688 131.007812 113.425781 128.882812 113.425781 126.277344 C 113.425781 123.667969 111.304688 121.546875 108.695312 121.546875 Z M 58.394531 23.960938 C 58.394531 22.589844 59.511719 21.476562 60.878906 21.476562 C 62.246094 21.476562 63.363281 22.59375 63.363281 23.960938 L 63.363281 32.664062 L 58.394531 32.664062 Z M 66.410156 82.132812 C 66.410156 83.296875 65.464844 84.242188 64.300781 84.242188 L 57.460938 84.242188 C 56.296875 84.242188 55.351562 83.296875 55.351562 82.132812 L 55.351562 81.140625 L 66.410156 81.140625 Z M 70.761719 76.910156 L 70.761719 78.644531 L 50.996094 78.644531 L 50.996094 76.910156 C 50.996094 75.949219 51.777344 75.171875 52.734375 75.171875 L 69.023438 75.171875 C 69.980469 75.171875 70.761719 75.949219 70.761719 76.910156 Z M 70.023438 44.828125 L 78.648438 44.828125 L 78.648438 50.121094 C 75.953125 50.699219 73.925781 53.089844 73.925781 55.953125 C 73.925781 58.816406 75.953125 61.210938 78.648438 61.785156 L 78.648438 67.082031 L 70.023438 67.082031 Z M 71.382812 100.410156 C 71.382812 101.710938 70.324219 102.769531 69.023438 102.769531 L 52.734375 102.769531 C 51.433594 102.769531 50.375 101.710938 50.375 100.410156 L 50.375 99.542969 L 71.382812 99.542969 Z M 85.378906 112.71875 L 81.144531 112.71875 L 81.144531 90.464844 L 88.09375 90.464844 C 88.597656 93.21875 91.015625 95.316406 93.917969 95.316406 C 97.179688 95.316406 99.835938 92.660156 99.835938 89.394531 L 99.835938 68.152344 C 99.835938 64.886719 97.179688 62.230469 93.917969 62.230469 C 91.015625 62.230469 88.597656 64.324219 88.09375 67.082031 L 81.144531 67.082031 L 81.144531 61.785156 C 83.835938 61.210938 85.863281 58.816406 85.863281 55.953125 C 85.863281 53.089844 83.835938 50.695312 81.144531 50.121094 L 81.144531 44.828125 L 85.378906 44.828125 C 98.097656 44.828125 108.441406 55.175781 108.441406 67.890625 L 108.441406 89.65625 C 108.441406 96.070312 105.753906 102.125 101.074219 106.488281 L 99.988281 103.585938 C 99.167969 101.386719 97.039062 99.910156 94.695312 99.910156 C 91.578125 99.910156 89.042969 102.445312 89.042969 105.5625 L 89.042969 112.414062 C 87.835938 112.609375 86.605469 112.71875 85.378906 112.71875 Z M 108.695312 128.511719 L 41.292969 128.511719 C 40.0625 128.511719 39.058594 127.507812 39.058594 126.277344 C 39.058594 125.042969 40.0625 124.042969 41.292969 124.042969 L 108.695312 124.042969 C 109.929688 124.042969 110.929688 125.042969 110.929688 126.277344 C 110.929688 127.507812 109.929688 128.511719 108.695312 128.511719 Z M 108.695312 128.511719 " fill-opacity="1" fill-rule="nonzero"/></g></svg>